<?xml version="1.0" encoding="UTF-8" standalone="no"?>
<svg width="219px" height="162px" viewBox="0 0 219 162" version="1.1" xmlns="http://www.w3.org/2000/svg" xmlns:xlink="http://www.w3.org/1999/xlink">
    <!-- Generator: Sketch 39.1 (31720) - http://www.bohemiancoding.com/sketch -->
    <title>burger-van</title>
    <desc>Created with Sketch.</desc>
    <defs></defs>
    <g id="Page-1" stroke="none" stroke-width="1" fill="none" fill-rule="evenodd">
        <g id="burger-van">
            <path d="M209.879,135.846 C211.771,137.738 211.959,144.87 209.879,146.55 L196.402,146.55 C196.578,145.532 196.672,144.486 196.672,143.417 C196.672,140.715 196.08,138.149 195.023,135.846 L209.879,135.846 L209.879,135.846 Z" id="Shape" fill="#BDC3C7"></path>
            <polygon id="Shape" fill="#FFFFFF" points="206.186 19.129 202.113 51.375 68.684 51.375 59.417 19.129"></polygon>
            <path d="M206.029,97.2 C206.385,106.855 206.029,135.846 206.029,135.846 L195.023,135.846 C192.152,129.603 185.842,125.267 178.522,125.267 C171.202,125.267 164.896,129.603 162.025,135.846 L64.426,135.846 C61.555,129.603 55.245,125.267 47.925,125.267 C40.605,125.267 34.295,129.603 31.424,135.846 L5.754,135.846 C5.754,135.846 4.548,122.905 5.464,118.495 C5.108,120.316 5.139,125.267 5.139,125.267 C5.139,125.267 14.128,123.939 15.937,121.875 C17.065,120.586 16.947,116.403 15.937,115.021 C14.938,113.654 10.277,112.706 7.555,112.181 C8.914,108.93 10.724,105.64 12.545,104.25 C19.074,99.276 41.07,87.984 41.07,87.984 L41.129,87.976 C41.999,95.582 51.962,95.375 51.962,95.375 L51.962,94.083 C61.711,94.561 85.716,94.604 86.699,93.676 C87.768,92.666 86.699,58.818 86.699,58.818 C85.148,57.847 70.378,57.757 68.682,58.818 C67.711,59.425 57.723,73.29 51.962,81.347 L51.962,76.247 L68.682,54.901 L202.894,54.901 C202.894,54.901 205.636,86.606 206.027,97.201 L206.029,97.2 Z M206.029,125.267 L206.029,117.959 C205.927,117.959 201.262,117.979 201.262,121.613 C201.262,125.267 206.029,125.267 206.029,125.267 L206.029,125.267 Z M195.583,111.692 L195.583,107.775 L192.645,107.775 L192.645,79.254 C195.583,77.593 195.583,72.917 195.583,72.917 L192.645,58.817 L96.883,58.817 L93.945,72.917 C93.945,72.917 93.945,77.715 96.883,79.317 L96.883,107.775 L93.945,107.775 L93.945,111.692 L195.583,111.692 L195.583,111.692 Z M85.325,111.692 C87.264,109.753 87.048,102.856 85.325,100.725 C84.741,100 82.262,100.067 81.604,100.725 C79.665,102.664 79.473,109.968 81.604,111.692 C82.329,112.276 84.667,112.35 85.325,111.692 L85.325,111.692 Z" id="Shape" fill="#FF9B1B"></path>
            <path d="M206.029,117.958 L206.029,125.266 C206.029,125.266 201.262,125.266 201.262,121.612 C201.262,117.977 205.927,117.958 206.029,117.958 L206.029,117.958 Z" id="Shape" fill="#E74C3C"></path>
            <path d="M203.025,51.375 C203.636,52.01 203.906,53.823 202.896,54.9 L68.684,54.9 C67.854,53.772 67.854,52.648 68.684,51.375 L203.026,51.375 L203.025,51.375 Z" id="Shape" fill="#FF9B1B"></path>
            <path d="M196.672,143.417 C196.672,144.486 196.578,145.532 196.402,146.55 L192.646,146.55 C190.754,144.658 190.566,137.526 192.646,135.846 L195.023,135.846 C196.08,138.149 196.672,140.714 196.672,143.417 L196.672,143.417 Z" id="Shape" fill="#BDC3C7"></path>
            <path d="M192.646,146.55 L196.402,146.55 C194.918,155.08 187.476,161.567 178.523,161.567 C169.57,161.567 162.131,155.081 160.646,146.55 L164.445,146.55 C166.525,144.87 166.337,137.738 164.445,135.846 L162.025,135.846 C164.896,129.603 171.202,125.267 178.522,125.267 C185.842,125.267 192.152,129.603 195.023,135.846 L192.646,135.846 C190.566,137.526 190.754,144.658 192.646,146.55 L192.646,146.55 Z M190.014,143.417 C190.014,137.072 184.867,131.925 178.522,131.925 C172.177,131.925 167.034,137.072 167.034,143.417 C167.034,149.762 172.177,154.909 178.522,154.909 C184.867,154.909 190.014,149.762 190.014,143.417 L190.014,143.417 Z" id="Shape" fill="#5E5D5D"></path>
            <polygon id="Shape" fill="#BDC3C7" points="195.583 107.775 195.583 111.692 93.945 111.692 93.945 107.775 192.645 107.775"></polygon>
            <polygon id="Shape" fill="#E74C3C" points="192.646 58.817 195.584 72.917 185.009 72.917 181.876 58.817"></polygon>
            <path d="M185.008,72.917 L195.583,72.917 C195.583,72.917 195.583,77.594 192.645,79.254 L192.645,79.258 C192.01,79.618 191.235,79.838 190.295,79.838 C185.008,79.838 185.008,72.917 185.008,72.917 L185.008,72.917 Z" id="Shape" fill="#E74C3C"></path>
            <path d="M192.646,79.258 L192.646,107.775 L167.579,107.775 L167.579,79.837 L167.646,79.837 C173.65,79.837 173.65,72.916 173.65,72.916 C173.65,72.916 173.65,79.837 179.329,79.837 C185.008,79.837 185.008,72.916 185.008,72.916 C185.008,72.916 185.008,79.837 190.295,79.837 C191.235,79.837 192.01,79.618 192.645,79.257 L192.646,79.258 Z" id="Shape" fill="#5E5D5D"></path>
            <path d="M178.522,131.925 C184.866,131.925 190.014,137.072 190.014,143.417 C190.014,149.762 184.867,154.909 178.522,154.909 C172.177,154.909 167.034,149.762 167.034,143.417 C167.034,137.072 172.177,131.925 178.522,131.925 L178.522,131.925 Z" id="Shape" fill="#BDC3C7"></path>
            <polygon id="Shape" fill="#FFFFFF" points="181.875 58.817 185.008 72.917 173.65 72.917 171.496 58.817"></polygon>
            <path d="M173.65,72.917 L185.008,72.917 C185.008,72.917 185.008,79.838 179.329,79.838 C173.65,79.838 173.65,72.917 173.65,72.917 L173.65,72.917 Z" id="Shape" fill="#FFFFFF"></path>
            <polygon id="Shape" fill="#E74C3C" points="171.496 58.817 173.65 72.917 161.638 72.917 160.377 58.817"></polygon>
            <path d="M161.638,72.917 L173.65,72.917 C173.65,72.917 173.65,79.838 167.646,79.838 L167.579,79.838 C161.637,79.787 161.637,72.917 161.637,72.917 L161.638,72.917 Z" id="Shape" fill="#E74C3C"></path>
            <path d="M167.579,79.837 L167.579,107.775 L155.829,107.775 C164.25,107.775 164.25,97.2 164.25,97.2 L147.408,97.2 C147.408,97.2 147.408,107.775 155.829,107.775 L141.337,107.775 L142.512,93.675 L143.883,93.675 L143.883,92.5 L137.323,92.5 L136.003,87.604 L134.679,87.604 L135.854,92.5 L130.762,92.5 L130.762,93.675 L132.329,93.675 L133.308,107.775 L122.146,107.775 L122.146,79.747 C126.846,78.948 126.846,72.916 126.846,72.916 C126.846,72.916 126.846,79.837 132.948,79.837 C139.054,79.837 139.054,72.916 139.054,72.916 C139.054,72.916 139.054,79.837 144.537,79.837 C150.02,79.837 150.02,72.916 150.02,72.916 C150.02,72.916 150.02,79.837 155.828,79.837 C161.636,79.837 161.636,72.916 161.636,72.916 C161.636,72.916 161.636,79.786 167.578,79.837 L167.579,79.837 Z" id="Shape" fill="#3C3C3C"></path>
            <path d="M164.446,135.846 C166.338,137.738 166.526,144.87 164.446,146.55 L160.647,146.55 C160.471,145.532 160.378,144.486 160.378,143.417 C160.378,140.715 160.969,138.149 162.027,135.846 L164.447,135.846 L164.446,135.846 Z" id="Shape" fill="#BDC3C7"></path>
            <path d="M147.408,97.2 L164.25,97.2 C164.25,97.2 164.25,107.775 155.829,107.775 C147.408,107.775 147.408,97.2 147.408,97.2 L147.408,97.2 Z" id="Shape" fill="#7FC0DD"></path>
            <path d="M161.117,135.846 L162.026,135.846 C160.969,138.149 160.377,140.714 160.377,143.417 C160.377,144.486 160.47,145.532 160.646,146.55 L65.805,146.55 C65.981,145.532 66.075,144.486 66.075,143.417 C66.075,140.715 65.484,138.149 64.426,135.846 L161.117,135.846 L161.117,135.846 Z" id="Shape" fill="#BDC3C7"></path>
            <polygon id="Shape" fill="#FFFFFF" points="160.376 58.817 161.637 72.917 150.02 72.917 150.02 58.817"></polygon>
            <path d="M150.021,72.917 L161.638,72.917 C161.638,72.917 161.638,79.838 155.83,79.838 C150.022,79.838 150.022,72.917 150.022,72.917 L150.021,72.917 Z" id="Shape" fill="#FFFFFF"></path>
            <polygon id="Shape" fill="#E74C3C" points="150.021 58.817 150.021 72.917 139.054 72.917 140.162 58.817"></polygon>
            <path d="M139.054,72.917 L150.021,72.917 C150.021,72.917 150.021,79.838 144.538,79.838 C139.055,79.838 139.055,72.917 139.055,72.917 L139.054,72.917 Z" id="Shape" fill="#E74C3C"></path>
            <polygon id="Shape" fill="#FFFFFF" points="143.883 92.5 143.883 93.675 130.762 93.675 130.762 92.5 137.322 92.5"></polygon>
            <polygon id="Shape" fill="#E74C3C" points="142.512 93.675 141.337 107.775 133.308 107.775 132.329 93.675"></polygon>
            <polygon id="Shape" fill="#FFFFFF" points="140.162 58.817 139.054 72.917 126.846 72.917 128.804 58.817"></polygon>
            <path d="M126.846,72.917 L139.054,72.917 C139.054,72.917 139.054,79.838 132.948,79.838 C126.846,79.838 126.846,72.917 126.846,72.917 L126.846,72.917 Z" id="Shape" fill="#FFFFFF"></path>
            <polygon id="Shape" fill="#FFFFFF" points="136.003 87.604 137.323 92.5 135.854 92.5 134.679 87.604"></polygon>
            <polygon id="Shape" fill="#E74C3C" points="128.804 58.817 126.846 72.917 115.292 72.917 118.621 58.817"></polygon>
            <path d="M115.292,72.917 L126.846,72.917 C126.846,72.917 126.846,78.949 122.146,79.748 C121.813,79.807 121.453,79.838 121.069,79.838 C115.292,79.838 115.292,72.917 115.292,72.917 L115.292,72.917 Z" id="Shape" fill="#E74C3C"></path>
            <path d="M122.146,79.747 L122.146,107.775 L96.883,107.775 L96.883,79.317 C97.474,79.642 98.183,79.838 99.037,79.838 C104.129,79.838 104.129,72.917 104.129,72.917 C104.129,72.917 104.129,79.838 109.71,79.838 C115.291,79.838 115.291,72.917 115.291,72.917 C115.291,72.917 115.291,79.838 121.068,79.838 C121.452,79.838 121.812,79.807 122.145,79.748 L122.146,79.747 Z" id="Shape" fill="#5E5D5D"></path>
            <polygon id="Shape" fill="#FFFFFF" points="118.621 58.817 115.292 72.917 104.13 72.917 108.242 58.817"></polygon>
            <path d="M104.129,72.917 L115.292,72.917 C115.292,72.917 115.292,79.838 109.711,79.838 C104.13,79.838 104.13,72.917 104.13,72.917 L104.129,72.917 Z" id="Shape" fill="#FFFFFF"></path>
            <polygon id="Shape" fill="#E74C3C" points="108.242 58.817 104.13 72.917 93.947 72.917 96.885 58.817"></polygon>
            <path d="M96.883,79.317 C93.945,77.715 93.945,72.917 93.945,72.917 L104.128,72.917 C104.128,72.917 104.128,79.838 99.036,79.838 C98.182,79.838 97.473,79.642 96.882,79.317 L96.883,79.317 Z" id="Shape" fill="#E74C3C"></path>
            <path d="M86.7,58.817 C86.7,58.817 87.769,92.665 86.7,93.675 C85.717,94.603 61.712,94.56 51.963,94.082 L51.963,81.345 C57.724,73.288 67.712,59.423 68.683,58.816 C70.379,57.755 85.149,57.845 86.7,58.816 L86.7,58.817 Z" id="Shape" fill="#7FC0DD"></path>
            <path d="M85.325,100.725 C87.048,102.855 87.264,109.753 85.325,111.692 C84.667,112.35 82.329,112.276 81.604,111.692 C79.473,109.969 79.665,102.664 81.604,100.725 C82.262,100.067 84.741,100 85.325,100.725 L85.325,100.725 Z" id="Shape" fill="#5E5D5D"></path>
            <path d="M66.075,143.417 C66.075,144.486 65.981,145.532 65.805,146.55 L62.221,146.55 C60.329,144.658 60.141,137.526 62.221,135.846 L64.426,135.846 C65.484,138.149 66.075,140.714 66.075,143.417 L66.075,143.417 Z" id="Shape" fill="#BDC3C7"></path>
            <path d="M62.221,146.55 L65.805,146.55 C64.321,155.08 56.879,161.567 47.925,161.567 C38.971,161.567 31.53,155.081 30.045,146.55 L33.825,146.55 C35.905,144.87 35.717,137.738 33.825,135.846 L31.424,135.846 C34.295,129.603 40.605,125.267 47.925,125.267 C55.245,125.267 61.555,129.603 64.426,135.846 L62.221,135.846 C60.141,137.526 60.329,144.658 62.221,146.55 L62.221,146.55 Z M59.417,143.417 C59.417,137.072 54.27,131.925 47.925,131.925 C41.58,131.925 36.433,137.072 36.433,143.417 C36.433,149.762 41.58,154.909 47.925,154.909 C54.27,154.909 59.417,149.762 59.417,143.417 L59.417,143.417 Z" id="Shape" fill="#5E5D5D"></path>
            <path d="M47.925,131.925 C54.27,131.925 59.417,137.072 59.417,143.417 C59.417,149.762 54.27,154.909 47.925,154.909 C41.58,154.909 36.433,149.762 36.433,143.417 C36.433,137.072 41.58,131.925 47.925,131.925 L47.925,131.925 Z" id="Shape" fill="#BDC3C7"></path>
            <path d="M51.963,94.082 L51.963,95.374 C51.963,95.374 41.999,95.582 41.13,87.975 C41.091,87.63 41.071,87.266 41.071,86.886 C41.071,76.374 51.963,76.244 51.963,76.244 L51.963,94.081 L51.963,94.082 Z" id="Shape" fill="#FF9B1B"></path>
            <path d="M33.825,135.846 C35.717,137.738 35.905,144.87 33.825,146.55 L30.045,146.55 C29.869,145.532 29.775,144.486 29.775,143.417 C29.775,140.715 30.366,138.149 31.424,135.846 L33.825,135.846 L33.825,135.846 Z" id="Shape" fill="#BDC3C7"></path>
            <path d="M30.038,135.846 L31.425,135.846 C30.368,138.149 29.776,140.714 29.776,143.417 C29.776,144.486 29.87,145.532 30.046,146.55 L2.101,146.55 C0.233,144.682 0.076,137.671 2.101,135.975 L5.755,135.846 L30.038,135.846 L30.038,135.846 Z" id="Shape" fill="#BDC3C7"></path>
            <path d="M15.938,115.021 C16.948,116.403 17.066,120.587 15.938,121.875 C14.128,123.939 5.14,125.267 5.14,125.267 C5.14,125.267 5.109,120.316 5.465,118.495 C5.477,118.444 5.485,118.397 5.496,118.35 C5.512,118.287 5.523,118.225 5.543,118.158 C5.982,116.423 7.454,112.452 7.552,112.193 C7.552,112.188 7.552,112.185 7.556,112.181 C10.278,112.705 14.939,113.653 15.938,115.02 L15.938,115.021 Z" id="Shape" fill="#FFFFFF"></path>
            <path d="M7.552,112.192 C7.454,112.45 5.981,116.422 5.543,118.157 C5.915,116.591 6.628,114.402 7.552,112.192 L7.552,112.192 Z" id="Shape" fill="#FF9B1B"></path>
            <path d="M5.559,135.864 C5.51,135.334 4.361,122.844 5.272,118.455 L5.655,118.534 C4.755,122.865 5.936,135.698 5.948,135.826 L5.558,135.863 L5.559,135.864 Z" id="Shape" fill="#333333"></path>
            <path d="M5.733,118.203 L5.352,118.113 C5.754,116.419 6.509,114.178 7.371,112.117 L7.732,112.268 C6.878,114.31 6.13,116.528 5.732,118.202 L5.733,118.203 Z" id="Shape" fill="#333333"></path>
            <path d="M7.737,112.257 L7.376,112.106 C8.329,109.827 10.252,105.755 12.428,104.094 C18.896,99.166 40.762,87.922 40.983,87.81 L41.162,88.159 C40.942,88.272 19.106,99.499 12.666,104.406 C10.563,106.012 8.676,110.014 7.738,112.257 L7.737,112.257 Z" id="Shape" fill="#333333"></path>
            <path d="M206.225,135.848 L205.833,135.843 C205.836,135.553 206.185,106.746 205.833,97.207 C205.461,87.15 202.938,57.678 202.716,55.095 L68.779,55.095 L52.117,76.366 L51.809,76.125 L68.588,54.704 L203.076,54.704 L203.091,54.883 C203.118,55.2 205.838,86.714 206.225,97.192 C206.577,106.742 206.228,135.558 206.225,135.848 L206.225,135.848 Z" id="Shape" fill="#333333"></path>
            <path d="M203.038,55.034 L202.753,54.766 C203.667,53.792 203.423,52.168 202.937,51.571 L68.791,51.571 C68.067,52.732 68.084,53.755 68.841,54.784 L68.525,55.016 C67.65,53.828 67.648,52.602 68.519,51.268 L68.577,51.179 L203.166,51.239 C203.866,51.966 204.121,53.88 203.038,55.034 L203.038,55.034 Z" id="Shape" fill="#333333"></path>
            <path d="M64.248,135.927 C61.324,129.57 54.917,125.462 47.925,125.462 C40.933,125.462 34.526,129.569 31.602,135.927 L31.246,135.763 C34.233,129.267 40.78,125.07 47.925,125.07 C55.07,125.07 61.617,129.267 64.604,135.763 L64.248,135.927 L64.248,135.927 Z" id="Shape" fill="#333333"></path>
            <path d="M47.925,161.762 C38.984,161.762 31.383,155.378 29.852,146.583 L30.238,146.516 C31.736,155.123 39.174,161.37 47.925,161.37 C56.676,161.37 64.114,155.123 65.612,146.516 L65.998,146.583 C64.468,155.378 56.867,161.762 47.926,161.762 L47.925,161.762 Z" id="Shape" fill="#333333"></path>
            <path d="M33.894,146.746 L2.019,146.746 L1.962,146.689 C0.79,145.518 0.361,142.616 0.458,140.416 C0.555,138.225 1.107,136.552 1.974,135.825 L2.026,135.782 L5.748,135.65 L33.907,135.65 L33.964,135.707 C35.186,136.928 35.612,139.937 35.491,142.215 C35.377,144.367 34.815,146.002 33.949,146.702 L33.895,146.746 L33.894,146.746 Z M2.184,146.354 L33.754,146.354 C34.494,145.705 34.996,144.16 35.1,142.194 C35.237,139.605 34.668,137.043 33.742,136.041 L5.755,136.041 L2.177,136.167 C1.433,136.84 0.938,138.425 0.85,140.432 C0.738,142.968 1.285,145.381 2.184,146.353 L2.184,146.354 Z" id="Shape" fill="#333333"></path>
            <path d="M194.845,135.927 C191.921,129.57 185.514,125.462 178.522,125.462 C171.532,125.462 165.126,129.569 162.203,135.927 L161.847,135.763 C164.834,129.267 171.379,125.07 178.522,125.07 C185.667,125.07 192.214,129.267 195.201,135.763 L194.845,135.927 L194.845,135.927 Z" id="Shape" fill="#333333"></path>
            <path d="M178.523,161.762 C169.584,161.762 161.984,155.378 160.454,146.583 L160.839,146.516 C162.337,155.123 169.774,161.37 178.522,161.37 C187.272,161.37 194.71,155.123 196.208,146.516 L196.593,146.583 C195.063,155.378 187.463,161.762 178.522,161.762 L178.523,161.762 Z" id="Shape" fill="#333333"></path>
            <path d="M164.515,146.746 L62.082,146.689 C60.86,145.468 60.434,142.459 60.555,140.181 C60.669,138.029 61.231,136.394 62.097,135.694 L62.151,135.651 L164.584,135.708 C165.805,136.929 166.232,139.938 166.111,142.215 C165.997,144.367 165.435,146.002 164.569,146.702 L164.515,146.745 L164.515,146.746 Z M62.304,146.354 L164.374,146.354 C165.115,145.705 165.616,144.16 165.72,142.194 C165.857,139.605 165.288,137.044 164.362,136.041 L62.292,136.041 C61.552,136.69 61.05,138.235 60.946,140.201 C60.809,142.79 61.378,145.352 62.304,146.354 L62.304,146.354 Z" id="Shape" fill="#333333"></path>
            <path d="M209.949,146.746 L192.565,146.746 L192.508,146.689 C191.287,145.468 190.86,142.459 190.981,140.182 C191.095,138.03 191.657,136.395 192.523,135.695 L192.577,135.652 L209.961,135.652 L210.018,135.709 C211.239,136.93 211.666,139.939 211.545,142.216 C211.431,144.368 210.869,146.003 210.003,146.703 L209.949,146.746 L209.949,146.746 Z M192.729,146.354 L209.807,146.354 C210.548,145.705 211.049,144.16 211.153,142.194 C211.29,139.605 210.721,137.043 209.795,136.041 L192.717,136.041 C191.976,136.69 191.475,138.235 191.371,140.201 C191.234,142.79 191.803,145.352 192.729,146.354 L192.729,146.354 Z" id="Shape" fill="#333333"></path>
            <path d="M47.925,155.104 C41.481,155.104 36.238,149.861 36.238,143.417 C36.238,136.973 41.481,131.73 47.925,131.73 C54.369,131.73 59.612,136.973 59.612,143.417 C59.612,149.861 54.369,155.104 47.925,155.104 L47.925,155.104 Z M47.925,132.121 C41.697,132.121 36.629,137.188 36.629,143.417 C36.629,149.646 41.696,154.713 47.925,154.713 C54.154,154.713 59.221,149.646 59.221,143.417 C59.221,137.188 54.154,132.121 47.925,132.121 L47.925,132.121 Z" id="Shape" fill="#333333"></path>
            <path d="M178.522,155.104 C172.08,155.104 166.839,149.861 166.839,143.417 C166.839,136.973 172.08,131.73 178.522,131.73 C184.966,131.73 190.209,136.973 190.209,143.417 C190.209,149.861 184.966,155.104 178.522,155.104 L178.522,155.104 Z M178.522,132.121 C172.296,132.121 167.23,137.188 167.23,143.417 C167.23,149.646 172.296,154.713 178.522,154.713 C184.75,154.713 189.818,149.646 189.818,143.417 C189.818,137.188 184.751,132.121 178.522,132.121 L178.522,132.121 Z" id="Shape" fill="#333333"></path>
            <path d="M69.982,94.614 C63.15,94.614 55.948,94.473 51.954,94.278 L51.973,93.887 C62.114,94.384 85.587,94.365 86.567,93.532 C87.294,92.614 86.932,72.382 86.509,58.935 C84.539,57.993 70.344,58.009 68.789,58.983 C68.389,59.232 65.694,62.484 52.124,81.459 L51.805,81.231 C58.94,71.253 67.643,59.236 68.581,58.65 C70.285,57.584 85.103,57.584 86.805,58.65 L86.894,58.706 L86.897,58.811 C87.076,64.478 87.915,92.798 86.836,93.818 C86.217,94.402 78.379,94.614 69.983,94.614 L69.982,94.614 Z" id="Shape" fill="#333333"></path>
            <polygon id="Shape" fill="#333333" points="192.45 79.258 192.842 79.258 192.842 107.775 192.45 107.775 192.45 79.258"></polygon>
            <polygon id="Shape" fill="#333333" points="97.079 107.775 96.687 107.775 96.687 79.317 97.079 79.313"></polygon>
            <polygon id="Shape" fill="#333333" points="195.779 111.888 93.75 111.888 93.75 107.58 133.308 107.58 133.308 107.972 94.141 107.972 94.141 111.497 195.387 111.497 195.387 107.972 141.337 107.972 141.337 107.58 195.779 107.58"></polygon>
            <polygon id="Shape" fill="#333333" points="121.95 79.747 122.342 79.747 122.342 107.775 121.95 107.775 121.95 79.747"></polygon>
            <polygon id="Shape" fill="#333333" points="167.383 79.837 167.775 79.837 167.775 107.775 167.383 107.775"></polygon>
            <polygon id="Shape" fill="#333333" points="94.137 72.957 93.754 72.877 96.724 58.621 108.242 58.621 108.242 59.013 97.043 59.013"></polygon>
            <polygon id="Shape" fill="#333333" points="118.621 58.621 128.804 58.621 128.804 59.013 118.621 59.013"></polygon>
            <polygon id="Shape" fill="#333333" points="140.162 58.621 150.02 58.621 150.02 59.013 140.162 59.013"></polygon>
            <polygon id="Shape" fill="#333333" points="160.376 58.621 171.495 58.621 171.495 59.013 160.376 59.013"></polygon>
            <polygon id="Shape" fill="#333333" points="195.392 72.957 192.487 59.013 181.875 59.013 181.875 58.621 192.805 58.621 195.775 72.877"></polygon>
            <path d="M83.558,112.353 L83.558,112.353 C82.86,112.353 81.948,112.219 81.482,111.844 C80.595,111.126 80.019,109.45 79.903,107.245 C79.78,104.914 80.217,101.836 81.467,100.587 C81.892,100.162 82.855,100.011 83.549,100.011 C84.458,100.011 85.18,100.232 85.478,100.603 C87.205,102.738 87.487,109.808 85.464,111.831 C84.992,112.304 83.974,112.354 83.558,112.354 L83.558,112.353 Z M83.549,100.402 C82.757,100.402 82.015,100.592 81.743,100.863 C80.761,101.845 80.151,104.52 80.294,107.224 C80.403,109.288 80.939,110.901 81.728,111.539 C82.041,111.792 82.777,111.961 83.558,111.961 C84.311,111.961 84.935,111.805 85.187,111.553 C87.062,109.678 86.782,102.836 85.173,100.848 C84.955,100.577 84.317,100.402 83.548,100.402 L83.549,100.402 Z" id="Shape" fill="#333333"></path>
            <path d="M51.886,95.571 C50.854,95.571 41.777,95.359 40.935,87.998 C40.895,87.648 40.875,87.274 40.875,86.887 C40.875,76.304 51.85,76.051 51.961,76.05 L52.159,76.048 L52.159,95.567 L51.886,95.572 L51.886,95.571 Z M51.767,76.45 C51.096,76.488 48.829,76.696 46.592,77.806 C43.058,79.559 41.266,82.614 41.266,86.888 C41.266,87.26 41.285,87.62 41.323,87.955 C42.101,94.753 50.338,95.161 51.767,95.179 L51.767,76.45 L51.767,76.45 Z" id="Shape" fill="#333333"></path>
            <path d="M206.225,125.463 L206.029,125.463 C205.979,125.463 201.067,125.419 201.067,121.613 C201.067,117.807 205.826,117.763 206.029,117.763 L206.225,117.763 L206.225,125.463 L206.225,125.463 Z M205.833,118.16 C204.948,118.202 201.458,118.562 201.458,121.612 C201.458,123.035 202.215,124.048 203.706,124.623 C204.573,124.957 205.452,125.042 205.833,125.063 L205.833,118.159 L205.833,118.16 Z" id="Shape" fill="#333333"></path>
            <path d="M4.945,125.494 L4.944,125.268 C4.943,125.065 4.917,120.277 5.273,118.457 L5.322,118.238 C5.332,118.194 5.342,118.149 5.356,118.102 C5.791,116.383 7.208,112.559 7.357,112.157 L7.357,112.108 L7.495,111.968 L7.594,111.987 C11.261,112.694 15.139,113.594 16.097,114.903 C17.144,116.335 17.309,120.605 16.086,122.002 C14.25,124.096 5.539,125.404 5.169,125.459 L4.946,125.492 L4.945,125.494 Z M7.682,112.405 C7.343,113.315 6.115,116.693 5.733,118.206 C5.72,118.251 5.711,118.289 5.703,118.326 L5.655,118.54 C5.351,120.095 5.334,124.049 5.335,125.039 C6.73,124.817 14.206,123.555 15.791,121.746 C16.874,120.509 16.712,116.411 15.78,115.137 C14.809,113.807 9.938,112.841 7.683,112.405 L7.682,112.405 Z" id="Shape" fill="#333333"></path>
            <polygon id="Shape" fill="#333333" points="144.079 93.871 142.512 93.871 142.512 93.479 143.687 93.479 143.687 92.696 137.322 92.696 137.322 92.304 144.078 92.304"></polygon>
            <polygon id="Shape" fill="#333333" points="132.329 93.871 130.567 93.871 130.567 92.304 135.854 92.304 135.854 92.696 130.958 92.696 130.958 93.479 132.329 93.479"></polygon>
            <path d="M141.518,107.971 L133.126,107.971 L132.12,93.479 L142.726,93.479 L141.518,107.971 L141.518,107.971 Z M133.491,107.579 L141.157,107.579 L142.299,93.871 L132.538,93.871 L133.49,107.579 L133.491,107.579 Z" id="Shape" fill="#333333"></path>
            <path d="M137.578,92.696 L135.699,92.696 L134.43,87.408 L136.152,87.408 L137.578,92.696 L137.578,92.696 Z M136.009,92.304 L137.068,92.304 L135.854,87.8 L134.928,87.8 L136.009,92.304 L136.009,92.304 Z" id="Shape" fill="#333333"></path>
            <polygon id="Shape" fill="#333333" points="104.317 72.972 103.941 72.862 108.095 58.621 118.869 58.621 115.483 72.962 115.102 72.872 118.374 59.013 108.389 59.013"></polygon>
            <polygon id="Shape" fill="#333333" points="127.04 72.944 126.652 72.89 128.633 58.621 140.374 58.621 139.249 72.932 138.859 72.901 139.95 59.012 128.974 59.012"></polygon>
            <polygon id="Shape" fill="#333333" points="161.443 72.934 160.198 59.013 150.217 59.013 150.217 72.917 149.825 72.917 149.825 58.621 160.556 58.621 161.833 72.9"></polygon>
            <polygon id="Shape" fill="#333333" points="184.817 72.959 181.718 59.013 171.724 59.013 173.844 72.887 173.457 72.946 171.268 58.62 182.032 58.62 185.199 72.874"></polygon>
            <path d="M99.037,80.033 C98.203,80.033 97.446,79.85 96.788,79.488 C93.783,77.85 93.749,73.117 93.749,72.917 L93.749,72.721 L104.324,72.721 L104.324,72.917 C104.324,72.988 104.264,80.034 99.036,80.034 L99.037,80.033 Z M94.147,73.112 C94.188,74.017 94.507,77.797 96.976,79.144 C97.576,79.474 98.269,79.641 99.037,79.641 C101.055,79.641 102.491,78.523 103.305,76.318 C103.802,74.973 103.905,73.609 103.927,73.112 L94.147,73.112 L94.147,73.112 Z" id="Shape" fill="#333333"></path>
            <path d="M109.71,80.033 C103.999,80.033 103.933,72.988 103.933,72.916 L103.933,72.72 L115.487,72.72 L115.487,72.916 C115.487,72.987 115.421,80.033 109.71,80.033 L109.71,80.033 Z M104.331,73.112 C104.355,73.608 104.468,74.97 105.012,76.313 C105.906,78.521 107.487,79.641 109.71,79.641 C111.937,79.641 113.519,78.518 114.412,76.303 C114.953,74.961 115.066,73.606 115.089,73.112 L104.331,73.112 L104.331,73.112 Z" id="Shape" fill="#333333"></path>
            <path d="M121.069,80.033 C115.165,80.033 115.096,72.988 115.096,72.916 L115.096,72.72 L127.042,72.72 L127.042,72.916 C127.042,72.978 126.986,79.122 122.179,79.94 C121.83,80.002 121.456,80.033 121.069,80.033 L121.069,80.033 Z M115.494,73.112 C115.518,73.608 115.636,74.969 116.199,76.311 C117.125,78.521 118.764,79.641 121.069,79.641 C121.434,79.641 121.785,79.612 122.112,79.554 C123.985,79.235 125.317,78.031 126.071,75.975 C126.521,74.749 126.621,73.567 126.644,73.112 L115.494,73.112 L115.494,73.112 Z" id="Shape" fill="#333333"></path>
            <path d="M132.948,80.033 C126.722,80.033 126.65,72.988 126.65,72.916 L126.65,72.72 L139.25,72.72 L139.25,72.916 C139.25,72.987 139.178,80.033 132.948,80.033 L132.948,80.033 Z M127.049,73.112 C127.075,73.608 127.199,74.967 127.793,76.308 C128.772,78.519 130.507,79.641 132.949,79.641 C135.392,79.641 137.128,78.52 138.108,76.308 C138.702,74.967 138.826,73.608 138.852,73.112 L127.049,73.112 L127.049,73.112 Z" id="Shape" fill="#333333"></path>
            <path d="M144.537,80.033 C138.923,80.033 138.858,72.988 138.858,72.916 L138.858,72.72 L150.216,72.72 L150.216,72.916 C150.216,72.987 150.151,80.033 144.537,80.033 L144.537,80.033 Z M139.256,73.112 C139.279,73.608 139.391,74.97 139.925,76.314 C140.803,78.522 142.354,79.641 144.537,79.641 C149.254,79.641 149.763,74.22 149.818,73.112 L139.256,73.112 L139.256,73.112 Z" id="Shape" fill="#333333"></path>
            <path d="M155.829,80.033 C149.894,80.033 149.825,72.988 149.825,72.916 L149.825,72.72 L161.833,72.72 L161.833,72.916 C161.833,72.987 161.764,80.033 155.829,80.033 L155.829,80.033 Z M150.223,73.112 C150.248,73.608 150.366,74.969 150.931,76.311 C151.862,78.521 153.51,79.641 155.829,79.641 C158.148,79.641 159.795,78.52 160.727,76.311 C161.292,74.969 161.41,73.608 161.435,73.112 L150.222,73.112 L150.223,73.112 Z" id="Shape" fill="#333333"></path>
            <path d="M167.646,80.033 L167.579,80.033 C161.512,79.981 161.442,72.987 161.442,72.916 L161.442,72.72 L173.846,72.72 L173.846,72.916 C173.846,72.987 173.775,80.033 167.646,80.033 L167.646,80.033 Z M161.841,73.112 C161.866,73.605 161.987,74.955 162.566,76.29 C163.519,78.493 165.207,79.62 167.582,79.641 L167.647,79.641 C170.052,79.641 171.759,78.516 172.721,76.298 C173.302,74.958 173.424,73.605 173.449,73.112 L161.842,73.112 L161.841,73.112 Z" id="Shape" fill="#333333"></path>
            <path d="M179.329,80.033 C173.521,80.033 173.454,72.988 173.454,72.916 L173.454,72.72 L185.204,72.72 L185.204,72.916 C185.204,72.987 185.137,80.033 179.329,80.033 L179.329,80.033 Z M173.852,73.112 C173.876,73.608 173.992,74.969 174.545,76.312 C175.455,78.521 177.065,79.641 179.329,79.641 C184.22,79.641 184.749,74.22 184.805,73.112 L173.852,73.112 L173.852,73.112 Z" id="Shape" fill="#333333"></path>
            <path d="M190.296,80.033 C184.875,80.033 184.813,72.988 184.813,72.916 L184.813,72.72 L195.78,72.72 L195.78,72.916 C195.78,73.109 195.746,77.624 192.843,79.366 L192.843,79.368 L192.744,79.428 C192.037,79.83 191.214,80.034 190.297,80.034 L190.296,80.033 Z M185.21,73.112 C185.233,73.608 185.34,74.971 185.856,76.316 C186.702,78.522 188.196,79.641 190.296,79.641 C191.111,79.641 191.843,79.469 192.474,79.129 L192.55,79.083 C195.018,77.688 195.34,74.003 195.382,73.112 L185.211,73.112 L185.21,73.112 Z" id="Shape" fill="#333333"></path>
            <path d="M155.829,107.971 C147.311,107.971 147.212,97.308 147.212,97.2 L147.212,97.004 L164.445,97.004 L164.445,97.2 C164.445,97.308 164.346,107.971 155.828,107.971 L155.829,107.971 Z M147.61,97.396 C147.668,98.827 148.33,107.579 155.829,107.579 C163.328,107.579 163.991,98.826 164.048,97.396 L147.609,97.396 L147.61,97.396 Z" id="Shape" fill="#333333"></path>
            <polygon id="Shape" fill="#333333" points="100.8 85.45 118.621 85.45 118.621 85.842 100.8 85.842 100.8 85.45"></polygon>
            <polygon id="Shape" fill="#333333" points="100.8 89.042 118.621 89.042 118.621 89.434 100.8 89.434 100.8 89.042"></polygon>
            <polygon id="Shape" fill="#333333" points="100.8 92.206 118.621 92.206 118.621 92.598 100.8 92.598 100.8 92.206"></polygon>
            <polygon id="Shape" fill="#333333" points="100.8 95.829 118.621 95.829 118.621 96.221 100.8 96.221 100.8 95.829"></polygon>
            <polygon id="Shape" fill="#333333" points="100.8 99.354 118.621 99.354 118.621 99.746 100.8 99.746 100.8 99.354"></polygon>
            <polygon id="Shape" fill="#333333" points="171.104 85.45 188.925 85.45 188.925 85.842 171.104 85.842"></polygon>
            <polygon id="Shape" fill="#333333" points="171.104 89.042 188.925 89.042 188.925 89.434 171.104 89.434"></polygon>
            <polygon id="Shape" fill="#333333" points="171.104 92.206 188.925 92.206 188.925 92.598 171.104 92.598"></polygon>
            <polygon id="Shape" fill="#333333" points="171.104 95.829 188.925 95.829 188.925 96.221 171.104 96.221"></polygon>
            <polygon id="Shape" fill="#333333" points="171.104 99.354 188.925 99.354 188.925 99.746 171.104 99.746"></polygon>
            <polygon id="Shape" fill="#333333" points="68.495 51.429 59.156 18.933 206.408 18.933 202.307 51.399 201.918 51.35 205.963 19.324 59.676 19.324 68.871 51.32"></polygon>
            <path d="M157.863,11.733 C161.225,15.188 213.869,43.47 213.869,43.47 C216.825,44.248 218.577,41.774 216.944,39.736 C216.282,38.91 213.284,37.606 213.284,37.606 C213.284,37.606 163.919,8.276 161.596,7.532 C158.633,6.583 156.064,9.884 157.863,11.733 L157.863,11.733 Z" id="Shape" fill="#FF9B1B"></path>
            <path d="M214.949,43.812 L214.949,43.812 C214.585,43.812 214.206,43.76 213.819,43.659 L213.776,43.642 C211.625,42.487 161.067,15.306 157.722,11.869 C157.044,11.172 156.884,10.228 157.284,9.281 C157.809,8.037 159.147,7.168 160.539,7.168 C160.912,7.168 161.288,7.227 161.655,7.345 C163.973,8.088 211.367,36.239 213.384,37.437 C213.486,37.48 216.412,38.759 217.096,39.613 C217.787,40.475 217.953,41.502 217.541,42.36 C217.104,43.269 216.135,43.812 214.947,43.812 L214.949,43.812 Z M213.941,43.286 C215.391,43.66 216.703,43.202 217.189,42.19 C217.539,41.46 217.394,40.61 216.791,39.858 C216.273,39.212 214.027,38.143 213.206,37.785 C212.691,37.481 163.812,8.447 161.536,7.718 C161.207,7.613 160.872,7.559 160.539,7.559 C159.301,7.559 158.111,8.329 157.645,9.432 C157.309,10.227 157.44,11.016 158.003,11.595 C161.281,14.964 212.655,42.594 213.941,43.285 L213.941,43.286 Z" id="Shape" fill="#333333"></path>
            <path d="M217.746,29.468 C217.44,23.221 207.049,13.817 202.201,9.865 C196.25,5.014 180.132,-1.272 172.798,0.997 C171.076,1.53 167.177,2.982 165.642,5.419 C164.748,6.838 165.642,9.885 165.642,9.885 L213.286,37.606 C213.286,37.606 216.2,37.057 217.218,35.535 C218.444,33.697 217.809,30.736 217.747,29.468 L217.746,29.468 Z" id="Shape" fill="#956817"></path>
            <path d="M213.249,37.812 L213.186,37.775 L165.475,10.015 L165.453,9.94 C165.415,9.812 164.545,6.791 165.475,5.315 C167.07,2.784 171.086,1.322 172.74,0.811 C173.784,0.488 175.042,0.324 176.481,0.324 C184.415,0.324 197.107,5.461 202.324,9.714 C203.97,11.056 208.191,14.615 211.822,18.676 C215.747,23.065 217.806,26.693 217.941,29.459 C217.952,29.69 217.983,29.977 218.018,30.304 C218.177,31.81 218.419,34.086 217.379,35.644 C216.328,37.216 213.443,37.776 213.321,37.798 L213.249,37.812 L213.249,37.812 Z M165.808,9.756 L213.318,37.399 C213.762,37.304 216.179,36.733 217.053,35.427 C218.015,33.986 217.782,31.796 217.628,30.346 C217.592,30.011 217.561,29.715 217.55,29.479 C217.217,22.689 204.602,12.077 202.077,10.019 C196.908,5.806 184.338,0.717 176.48,0.717 C175.081,0.717 173.861,0.875 172.854,1.186 C171.243,1.684 167.33,3.105 165.805,5.525 C165.043,6.735 165.681,9.29 165.807,9.757 L165.808,9.756 Z" id="Shape" fill="#333333"></path>
            <path d="M210.258,41.423 C210.258,41.423 210.003,46.61 208.541,47.67 C200.932,53.19 183.278,42.663 175.355,37.606 C170.508,34.512 156.536,23.049 157.211,17.338 C157.443,15.374 161.707,13.91 161.707,13.91 L210.258,41.423 L210.258,41.423 Z" id="Shape" fill="#956817"></path>
            <path d="M202.981,49.425 C196.695,49.425 187.365,45.504 175.249,37.772 C169.96,34.397 156.345,22.995 157.016,17.316 C157.26,15.254 161.463,13.787 161.642,13.726 L161.726,13.697 L210.459,41.312 L210.453,41.433 C210.443,41.649 210.176,46.727 208.656,47.829 C207.196,48.887 205.287,49.425 202.981,49.425 L202.981,49.425 Z M161.688,14.125 C161.104,14.339 157.603,15.686 157.405,17.362 C157.047,20.39 160.984,24.99 164.349,28.315 C168.169,32.089 172.83,35.763 175.459,37.442 C187.511,45.134 196.77,49.034 202.98,49.034 C205.202,49.034 207.034,48.522 208.425,47.513 C209.531,46.711 209.967,43.038 210.055,41.535 L161.688,14.126 L161.688,14.125 Z" id="Shape" fill="#333333"></path>
            <path d="M178.281,4.42 C177.861,4.701 177.831,6.213 178.281,6.443 C178.871,6.744 180.727,6.094 180.732,5.432 C180.737,4.77 178.832,4.052 178.281,4.421 L178.281,4.42 Z" id="Shape" fill="#DDB03E"></path>
            <path d="M187.452,6.442 C187.087,6.666 187.111,7.895 187.452,8.154 C187.898,8.491 189.481,8.078 189.599,7.532 C189.727,6.944 187.965,6.128 187.452,6.443 L187.452,6.442 Z" id="Shape" fill="#DDB03E"></path>
            <path d="M192.633,10.799 C192.272,11.094 192.241,12.88 192.633,13.132 C193.086,13.424 194.578,12.271 194.578,11.732 C194.578,11.193 193.05,10.458 192.633,10.799 L192.633,10.799 Z" id="Shape" fill="#DDB03E"></path>
            <path d="M192.817,13.375 L192.817,13.375 C192.705,13.375 192.607,13.349 192.528,13.297 C192.265,13.127 192.184,12.636 192.162,12.253 C192.137,11.816 192.178,10.919 192.51,10.647 C192.616,10.56 192.763,10.516 192.945,10.516 C193.601,10.516 194.775,11.129 194.775,11.732 C194.775,12.14 194.261,12.606 194.04,12.787 C193.872,12.926 193.286,13.375 192.818,13.375 L192.817,13.375 Z M192.945,10.907 C192.859,10.907 192.791,10.923 192.758,10.95 C192.648,11.04 192.516,11.571 192.553,12.23 C192.58,12.696 192.682,12.929 192.74,12.967 C192.756,12.977 192.783,12.983 192.817,12.983 L192.817,12.983 C193.035,12.983 193.427,12.782 193.791,12.484 C194.179,12.165 194.383,11.864 194.383,11.732 C194.383,11.455 193.509,10.907 192.945,10.907 L192.945,10.907 Z" id="Shape" fill="#333333"></path>
            <path d="M203.135,17.644 C202.376,17.947 202.367,20.633 203.135,20.911 C203.665,21.103 204.62,19.837 204.691,19.278 C204.762,18.719 203.659,17.435 203.135,17.644 L203.135,17.644 Z" id="Shape" fill="#DDB03E"></path>
            <path d="M203.251,21.126 L203.251,21.126 C203.187,21.126 203.126,21.115 203.068,21.095 C202.569,20.915 202.379,20.085 202.367,19.369 C202.354,18.622 202.529,17.675 203.062,17.462 C203.123,17.438 203.19,17.425 203.26,17.425 C203.691,17.425 204.141,17.882 204.315,18.08 C204.621,18.427 204.931,18.93 204.884,19.302 C204.814,19.861 203.935,21.126 203.251,21.126 L203.251,21.126 Z M203.261,17.817 C203.24,17.817 203.223,17.82 203.208,17.826 C202.944,17.932 202.747,18.607 202.759,19.362 C202.771,20.064 202.957,20.638 203.202,20.726 C203.217,20.732 203.233,20.734 203.252,20.734 C203.646,20.734 204.437,19.724 204.497,19.252 C204.517,19.093 204.358,18.718 204.022,18.338 C203.746,18.025 203.44,17.816 203.261,17.816 L203.261,17.817 Z" id="Shape" fill="#333333"></path>
            <path d="M199.557,11.733 C198.848,12.213 198.759,14.847 199.557,15.156 C200.352,15.464 201.977,13.515 201.891,12.667 C201.828,12.041 200.078,11.381 199.557,11.733 L199.557,11.733 Z" id="Shape" fill="#DDB03E"></path>
            <path d="M199.741,15.384 L199.741,15.384 C199.651,15.384 199.565,15.368 199.486,15.338 C199.136,15.202 198.9,14.749 198.822,14.062 C198.715,13.117 198.92,11.927 199.447,11.57 C199.576,11.482 199.755,11.438 199.976,11.438 C200.743,11.438 202.02,11.991 202.086,12.646 C202.14,13.174 201.669,13.957 201.179,14.498 C200.938,14.764 200.316,15.383 199.74,15.383 L199.741,15.384 Z M199.976,11.83 C199.838,11.83 199.728,11.853 199.667,11.895 C199.329,12.124 199.112,13.136 199.211,14.018 C199.269,14.53 199.429,14.896 199.627,14.973 C199.889,15.076 200.405,14.771 200.888,14.237 C201.391,13.681 201.73,13.029 201.696,12.687 C201.661,12.334 200.648,11.831 199.976,11.831 L199.976,11.83 Z" id="Shape" fill="#333333"></path>
            <path d="M209.765,22.298 C209.006,22.601 208.997,25.287 209.765,25.565 C210.295,25.757 211.25,24.491 211.321,23.932 C211.392,23.373 210.289,22.089 209.765,22.298 L209.765,22.298 Z" id="Shape" fill="#DDB03E"></path>
            <path d="M209.881,25.781 L209.881,25.781 C209.817,25.781 209.756,25.77 209.698,25.75 C209.199,25.57 209.009,24.74 208.997,24.024 C208.985,23.277 209.159,22.33 209.692,22.117 C209.753,22.093 209.82,22.08 209.89,22.08 C210.322,22.08 210.772,22.538 210.946,22.735 C211.251,23.082 211.561,23.585 211.514,23.956 C211.444,24.515 210.565,25.781 209.881,25.781 L209.881,25.781 Z M209.89,22.472 C209.869,22.472 209.852,22.475 209.837,22.481 C209.573,22.587 209.376,23.262 209.388,24.018 C209.399,24.72 209.586,25.293 209.831,25.382 C209.846,25.388 209.862,25.39 209.881,25.39 C210.275,25.39 211.066,24.38 211.126,23.908 C211.147,23.745 210.99,23.379 210.653,22.995 C210.378,22.683 210.071,22.473 209.891,22.473 L209.89,22.472 Z" id="Shape" fill="#333333"></path>
            <path d="M84.639,36.975 C84.835,38.777 83.797,40.265 81.525,41.44 C79.547,42.459 77.383,42.968 75.033,42.968 C72.781,42.968 71.606,42.478 71.508,41.499 C71.155,38.15 70.979,35.134 70.979,32.451 C70.979,30.767 71.057,29.641 71.214,29.073 C71.331,28.642 72.193,28.197 73.799,27.737 C75.405,27.277 76.971,27.046 78.499,27.046 C80.594,27.046 81.808,27.536 82.142,28.515 C82.298,28.907 82.377,29.318 82.377,29.749 C82.377,31.198 81.603,32.54 80.056,33.773 C82.856,33.657 84.384,34.724 84.638,36.976 L84.639,36.975 Z M75.445,31.1 C74.466,31.1 73.976,31.766 73.976,33.098 C73.976,33.588 74.035,34.097 74.152,34.625 C74.779,34.645 75.346,34.371 75.856,33.802 C76.306,33.273 76.532,32.725 76.532,32.157 C76.532,31.452 76.169,31.1 75.445,31.1 L75.445,31.1 Z M78.206,37.416 C78.186,37.005 77.951,36.75 77.501,36.653 C77.325,36.633 76.943,36.633 76.355,36.653 C75.768,36.692 75.405,36.908 75.268,37.299 C75.229,37.416 75.209,37.75 75.209,38.298 C75.209,39.14 75.356,39.552 75.65,39.532 C76.355,39.454 76.972,39.17 77.501,38.68 C77.99,38.249 78.225,37.829 78.206,37.417 L78.206,37.416 Z" id="Shape" fill="#E74C3C"></path>
            <path d="M97.652,29.426 C97.926,31.267 98.063,32.902 98.063,34.331 C98.063,40.206 95.576,43.037 90.602,42.821 C87.606,42.703 86.108,40.314 86.108,35.653 C86.108,34.204 86.255,32.589 86.549,30.806 C86.725,29.984 86.891,29.151 87.048,28.309 C87.107,27.976 87.361,27.761 87.812,27.663 C88.536,27.585 89.251,27.507 89.956,27.428 C90.387,27.389 90.739,27.37 91.014,27.37 C91.954,27.37 92.375,27.733 92.277,28.456 C92.179,29.22 92.022,30.248 91.807,31.54 C91.631,32.539 91.543,33.244 91.543,33.655 C91.543,34.889 91.964,35.535 92.806,35.594 C94.412,35.731 95.215,34.468 95.215,31.805 C95.215,30.885 95.137,30.15 94.98,29.602 C94.921,29.426 94.892,29.259 94.892,29.103 C94.892,28.711 95.244,28.398 95.95,28.163 C96.263,28.046 96.498,27.987 96.655,27.987 C97.184,27.987 97.517,28.467 97.654,29.426 L97.652,29.426 Z" id="Shape" fill="#E74C3C"></path>
            <path d="M111.458,39.913 C111.595,40.403 111.664,40.775 111.664,41.03 C111.664,41.285 111.536,41.5 111.282,41.676 C110.93,41.97 110.587,42.264 110.254,42.557 C109.706,43.008 109.275,43.233 108.961,43.233 C108.706,43.233 108.52,43.067 108.403,42.734 C107.384,39.562 106.406,37.976 105.465,37.976 C105.348,37.976 105.24,37.996 105.142,38.034 C104.926,38.112 104.858,38.514 104.936,39.238 C105.014,40.021 105.092,40.961 105.171,42.058 C105.19,42.352 105.181,42.548 105.142,42.646 C105.103,42.744 104.956,42.832 104.701,42.91 C103.487,43.321 102.429,43.527 101.529,43.527 C100.51,43.527 99.991,43.194 99.972,42.528 C99.952,41.51 99.884,39.101 99.766,35.302 C99.629,31.385 99.541,29.265 99.502,28.943 C99.463,28.621 99.443,28.419 99.443,28.341 C99.443,27.812 99.707,27.47 100.236,27.313 C101,27.078 102.018,26.961 103.291,26.961 C107.638,26.961 109.88,28.724 110.018,32.248 C110.077,33.678 109.528,34.745 108.373,35.45 C108.902,36.077 109.372,36.645 109.783,37.154 C110.743,38.407 111.301,39.327 111.457,39.915 L111.458,39.913 Z M104.643,31.218 C103.801,31.179 103.38,31.639 103.38,32.598 C103.38,32.912 103.419,33.303 103.497,33.773 L103.673,34.684 C103.712,34.978 103.81,35.125 103.967,35.125 C104.104,35.125 104.329,34.978 104.643,34.684 C104.878,34.469 105.103,34.126 105.319,33.656 C105.573,33.108 105.701,32.638 105.701,32.246 C105.701,31.581 105.348,31.238 104.643,31.218 L104.643,31.218 Z" id="Shape" fill="#E74C3C"></path>
            <path d="M124.529,40.03 C123.648,41.127 122.591,41.998 121.357,42.644 C120.123,43.29 118.899,43.613 117.685,43.613 C116.04,43.613 114.708,43.016 113.69,41.821 C112.534,40.49 111.936,38.522 111.898,35.917 C111.84,32.529 112.965,30.003 115.276,28.338 C116.941,27.163 118.831,26.575 120.946,26.575 C121.808,26.575 122.277,26.664 122.356,26.839 C122.943,28.19 123.237,29.405 123.237,30.482 C123.237,30.913 123.158,31.118 123.002,31.098 C122.16,30.942 121.426,30.863 120.799,30.863 C119.467,30.863 118.488,31.215 117.861,31.92 C117.489,32.312 117.077,33.124 116.628,34.358 C116.49,34.75 116.422,35.102 116.422,35.416 C116.422,36.043 116.676,36.522 117.185,36.855 C117.597,37.11 118.017,37.207 118.449,37.149 C119.487,37.051 120.015,36.689 120.035,36.063 C120.054,35.671 119.849,35.476 119.419,35.476 C119.262,35.476 118.968,35.515 118.538,35.593 C118.146,35.671 117.951,35.427 117.951,34.859 C117.951,34.487 118.039,34.017 118.215,33.449 C118.352,33.038 118.959,32.705 120.036,32.45 C120.956,32.215 121.906,32.098 122.885,32.098 C123.629,32.098 124.04,32.176 124.119,32.333 C124.608,33.41 124.853,35.192 124.853,37.679 C124.853,38.991 124.745,39.774 124.529,40.029 L124.529,40.03 Z" id="Shape" fill="#E74C3C"></path>
            <path d="M135.516,41.852 C134.889,42.224 134.028,42.586 132.931,42.939 C131.345,43.468 129.954,43.703 128.76,43.644 C126.899,43.546 125.969,42.45 125.969,40.354 C125.969,39.963 125.998,39.502 126.058,38.974 C126.214,36.957 126.41,34.343 126.646,31.131 C126.763,29.702 126.871,28.859 126.969,28.605 C127.243,27.802 127.88,27.342 128.878,27.225 C131.032,26.951 132.609,26.833 133.607,26.872 C134.469,26.931 134.909,26.961 134.929,26.961 C135.164,27.078 135.281,27.49 135.281,28.194 C135.281,28.429 135.29,28.752 135.31,29.164 C135.33,29.576 135.339,29.859 135.339,30.016 C135.339,30.799 135.065,31.152 134.517,31.073 C132.852,30.858 132.039,30.75 132.079,30.75 C131.315,30.75 130.904,30.995 130.845,31.484 C130.747,32.287 130.698,32.717 130.698,32.777 C130.698,33.188 130.864,33.394 131.197,33.394 C131.334,33.394 131.569,33.36 131.902,33.291 C132.235,33.222 132.489,33.188 132.666,33.188 C133.097,33.188 133.282,33.404 133.224,33.834 C133.146,34.461 133.087,34.823 133.048,34.92 C132.891,35.214 132.558,35.361 132.049,35.361 C131.305,35.322 130.59,35.322 129.904,35.361 C129.806,35.675 129.757,35.988 129.757,36.301 C129.757,37.143 130.109,37.515 130.815,37.417 C131.383,37.339 132.117,37.143 133.018,36.83 C133.801,36.556 134.32,36.419 134.575,36.419 C135.104,36.419 135.407,36.791 135.485,37.536 C135.759,39.847 135.897,40.954 135.897,40.855 C135.897,41.383 135.77,41.716 135.516,41.853 L135.516,41.852 Z" id="Shape" fill="#E74C3C"></path>
            <path d="M149.058,39.913 C149.195,40.403 149.263,40.775 149.263,41.03 C149.263,41.285 149.136,41.5 148.881,41.676 C148.529,41.97 148.186,42.264 147.853,42.557 C147.305,43.008 146.874,43.233 146.561,43.233 C146.306,43.233 146.12,43.067 146.002,42.734 C144.984,39.562 144.004,37.976 143.064,37.976 C142.947,37.976 142.839,37.996 142.741,38.034 C142.525,38.112 142.456,38.514 142.535,39.238 C142.613,40.021 142.691,40.961 142.77,42.058 C142.789,42.352 142.78,42.548 142.741,42.646 C142.701,42.744 142.554,42.832 142.3,42.91 C141.085,43.321 140.028,43.527 139.127,43.527 C138.108,43.527 137.589,43.194 137.57,42.528 C137.55,41.51 137.482,39.101 137.365,35.302 C137.228,31.385 137.14,29.265 137.101,28.943 C137.062,28.621 137.042,28.419 137.042,28.341 C137.042,27.812 137.307,27.47 137.835,27.313 C138.598,27.078 139.617,26.961 140.89,26.961 C145.238,26.961 147.48,28.724 147.617,32.248 C147.676,33.678 147.127,34.745 145.972,35.45 C146.501,36.077 146.97,36.645 147.382,37.154 C148.341,38.407 148.899,39.327 149.056,39.915 L149.058,39.913 Z M142.243,31.218 C141.401,31.179 140.98,31.639 140.98,32.598 C140.98,32.912 141.019,33.303 141.097,33.773 L141.274,34.684 C141.313,34.978 141.411,35.125 141.568,35.125 C141.705,35.125 141.93,34.978 142.244,34.684 C142.479,34.469 142.704,34.126 142.92,33.656 C143.174,33.108 143.302,32.638 143.302,32.246 C143.302,31.581 142.949,31.238 142.244,31.218 L142.243,31.218 Z" id="Shape" fill="#E74C3C"></path>
            <path d="M162.452,37.152 C162.452,40.991 159.798,42.929 154.491,42.969 C152.905,42.989 151.828,42.675 151.26,42.029 C150.829,41.579 150.614,40.805 150.614,39.708 C150.614,39.532 150.623,39.258 150.643,38.885 C150.662,38.513 150.672,38.229 150.672,38.033 C150.672,37.172 150.966,36.741 151.553,36.741 C151.905,36.741 152.365,36.888 152.934,37.182 C153.346,37.378 153.761,37.579 154.183,37.784 C154.604,37.99 155.04,38.093 155.49,38.093 C156.273,38.093 156.704,37.77 156.782,37.123 C156.84,36.614 156.616,36.252 156.106,36.037 C155.597,35.881 155.078,35.734 154.549,35.596 C154.118,35.479 153.697,35.361 153.286,35.244 C152.699,35.029 152.267,34.686 151.993,34.216 C151.641,33.589 151.503,32.708 151.582,31.572 C151.719,29.908 152.463,28.762 153.814,28.136 C154.656,27.744 155.909,27.529 157.574,27.49 C158.064,27.49 158.935,27.421 160.189,27.284 C161.207,27.167 161.873,27.696 162.186,28.871 C162.362,29.459 162.451,30.398 162.451,31.691 C162.451,32.122 162.216,32.337 161.746,32.337 C161.139,32.337 160.454,32.083 159.69,31.573 C159.376,31.358 158.916,31.25 158.309,31.25 C157.33,31.25 156.84,31.613 156.84,32.337 C156.84,33.061 157.33,33.503 158.309,33.659 C159.876,33.894 160.767,34.07 160.983,34.188 C161.962,34.658 162.452,35.647 162.452,37.154 L162.452,37.152 Z" id="Shape" fill="#E74C3C"></path>
        </g>
    </g>
</svg>